<svg width="960" height="1200" viewBox="0 0 960 1200" fill="none" xmlns="http://www.w3.org/2000/svg">
  <defs>
    <linearGradient id="story-bg" x1="126" y1="80" x2="826" y2="1118" gradientUnits="userSpaceOnUse">
      <stop offset="0" stop-color="#0E1A24" />
      <stop offset="0.46" stop-color="#091118" />
      <stop offset="1" stop-color="#06090D" />
    </linearGradient>
    <radialGradient id="story-mint" cx="0" cy="0" r="1" gradientUnits="userSpaceOnUse" gradientTransform="translate(692 274) rotate(128.619) scale(394.867 334.346)">
      <stop stop-color="#3EF2CF" stop-opacity="0.56" />
      <stop offset="0.48" stop-color="#3EF2CF" stop-opacity="0.16" />
      <stop offset="1" stop-color="#3EF2CF" stop-opacity="0" />
    </radialGradient>
    <radialGradient id="story-gold" cx="0" cy="0" r="1" gradientUnits="userSpaceOnUse" gradientTransform="translate(808 184) rotate(141.794) scale(288.708 214.793)">
      <stop stop-color="#FFD45A" stop-opacity="0.4" />
      <stop offset="0.46" stop-color="#FFD45A" stop-opacity="0.12" />
      <stop offset="1" stop-color="#FFD45A" stop-opacity="0" />
    </radialGradient>
    <radialGradient id="story-cyan" cx="0" cy="0" r="1" gradientUnits="userSpaceOnUse" gradientTransform="translate(346 900) rotate(101.292) scale(364.282 410.472)">
      <stop stop-color="#66E8FF" stop-opacity="0.2" />
      <stop offset="0.5" stop-color="#66E8FF" stop-opacity="0.06" />
      <stop offset="1" stop-color="#66E8FF" stop-opacity="0" />
    </radialGradient>
    <linearGradient id="jacket-fill" x1="355" y1="409" x2="585" y2="872" gradientUnits="userSpaceOnUse">
      <stop stop-color="#1C2A36" />
      <stop offset="0.56" stop-color="#121C25" />
      <stop offset="1" stop-color="#0A1117" />
    </linearGradient>
    <linearGradient id="phone-fill" x1="570" y1="472" x2="709" y2="772" gradientUnits="userSpaceOnUse">
      <stop stop-color="#131F2A" />
      <stop offset="1" stop-color="#091017" />
    </linearGradient>
    <linearGradient id="screen-line" x1="590" y1="516" x2="683" y2="720" gradientUnits="userSpaceOnUse">
      <stop stop-color="#3EF2CF" />
      <stop offset="0.62" stop-color="#66E8FF" />
      <stop offset="1" stop-color="#FFD45A" />
    </linearGradient>
    <linearGradient id="courier-fill" x1="675" y1="803" x2="838" y2="1008" gradientUnits="userSpaceOnUse">
      <stop stop-color="#182430" />
      <stop offset="1" stop-color="#0B1219" />
    </linearGradient>
    <filter id="soft-blur" x="0" y="0" width="960" height="1200" filterUnits="userSpaceOnUse" color-interpolation-filters="sRGB">
      <feGaussianBlur stdDeviation="38" />
    </filter>
  </defs>

  <rect width="960" height="1200" rx="72" fill="url(#story-bg)" />
  <rect width="960" height="1200" rx="72" fill="url(#story-mint)" />
  <rect width="960" height="1200" rx="72" fill="url(#story-gold)" />
  <rect width="960" height="1200" rx="72" fill="url(#story-cyan)" />

  <g opacity="0.18" filter="url(#soft-blur)">
    <ellipse cx="730" cy="252" rx="126" ry="78" fill="#3EF2CF" />
    <ellipse cx="788" cy="872" rx="118" ry="68" fill="#66E8FF" />
    <ellipse cx="242" cy="1004" rx="148" ry="90" fill="#FFD45A" />
  </g>

  <path d="M96 842C205.719 757.224 346.062 707 498.138 707H883V1100H76V857.021C76 850.564 78.8916 844.446 83.868 840.394L96 842Z" fill="rgba(255,255,255,0.02)" />

  <g opacity="0.45">
    <rect x="110" y="154" width="222" height="386" rx="36" fill="rgba(255,255,255,0.025)" stroke="rgba(255,255,255,0.08)" stroke-width="2" />
    <rect x="138" y="188" width="166" height="14" rx="7" fill="rgba(255,255,255,0.08)" />
    <rect x="138" y="228" width="126" height="10" rx="5" fill="rgba(62,242,207,0.16)" />
    <rect x="138" y="260" width="102" height="10" rx="5" fill="rgba(255,255,255,0.08)" />
    <rect x="138" y="370" width="106" height="106" rx="28" fill="rgba(255,255,255,0.035)" />
  </g>

  <path d="M424 880C424 816.487 475.487 765 539 765H903V1114H424V880Z" fill="rgba(255,255,255,0.02)" />
  <path d="M561 1057C641.082 1057 706 992.082 706 912C706 831.918 641.082 767 561 767C480.918 767 416 831.918 416 912C416 992.082 480.918 1057 561 1057Z" fill="rgba(8,16,22,0.54)" />

  <g>
    <ellipse cx="476" cy="1018" rx="244" ry="66" fill="rgba(0,0,0,0.34)" />
    <path d="M324 820C324 725.044 400.985 648 495.938 648C590.891 648 667.876 725.044 667.876 820V1020H324V820Z" fill="url(#jacket-fill)" />
    <path d="M413 591C413 538.063 455.943 495 508.75 495C561.557 495 604.5 538.063 604.5 591V650H413V591Z" fill="#1E2D39" />
    <circle cx="507" cy="433" r="95" fill="#18222D" />
    <path d="M451 423C451 390.758 477.147 364.5 509.5 364.5C541.853 364.5 568 390.758 568 423V462H451V423Z" fill="#0F171E" />
    <path d="M427 627C448.945 643.754 476.338 653.667 506 653.667C535.663 653.667 563.056 643.754 585 627V731H427V627Z" fill="#101920" />
    <path d="M387 787L505 698L624 787L567 1020H444L387 787Z" fill="rgba(255,255,255,0.03)" />
    <path d="M503 699L550 758H458L503 699Z" fill="#223340" />
    <path d="M471 768H536L519 1020H488L471 768Z" fill="#0B1217" />
  </g>

  <g transform="rotate(-12 626 618)">
    <rect x="548" y="448" width="184" height="328" rx="36" fill="url(#phone-fill)" stroke="rgba(255,255,255,0.12)" stroke-width="2" />
    <rect x="564" y="470" width="152" height="284" rx="28" fill="rgba(255,255,255,0.03)" />
    <rect x="598" y="492" width="84" height="8" rx="4" fill="rgba(255,255,255,0.16)" />
    <rect x="584" y="532" width="112" height="80" rx="20" fill="rgba(62,242,207,0.09)" />
    <path d="M600 554H664" stroke="url(#screen-line)" stroke-width="8" stroke-linecap="round" />
    <path d="M600 582H676" stroke="rgba(255,255,255,0.14)" stroke-width="8" stroke-linecap="round" />
    <rect x="584" y="638" width="132" height="54" rx="18" fill="rgba(255,255,255,0.05)" />
    <rect x="598" y="656" width="78" height="8" rx="4" fill="rgba(255,255,255,0.16)" />
    <rect x="598" y="688" width="104" height="8" rx="4" fill="rgba(62,242,207,0.18)" />
  </g>

  <path d="M632 470C655 430 716 391 780 406C835 419 861 456 870 492" stroke="rgba(62,242,207,0.28)" stroke-width="4" stroke-linecap="round" stroke-dasharray="10 14" />
  <circle cx="632" cy="470" r="8" fill="#3EF2CF" />
  <circle cx="870" cy="492" r="8" fill="#FFD45A" />

  <g transform="translate(646 786)">
    <ellipse cx="110" cy="174" rx="122" ry="30" fill="rgba(0,0,0,0.42)" />
    <path d="M49 110C49 74.1015 78.1015 45 114 45C149.899 45 179 74.1015 179 110V152H49V110Z" fill="url(#courier-fill)" />
    <circle cx="112" cy="20" r="32" fill="#14202B" />
    <path d="M66 42L98 64L72 97L38 76L66 42Z" fill="rgba(255,255,255,0.06)" />
    <path d="M167 86H228C250.091 86 268 103.909 268 126V137H167V86Z" fill="rgba(255,255,255,0.05)" />
    <path d="M34 133H264" stroke="rgba(255,255,255,0.12)" stroke-width="10" stroke-linecap="round" />
    <circle cx="74" cy="146" r="34" fill="#0F171D" stroke="rgba(255,255,255,0.08)" stroke-width="4" />
    <circle cx="74" cy="146" r="12" fill="#1A2833" />
    <circle cx="238" cy="146" r="34" fill="#0F171D" stroke="rgba(255,255,255,0.08)" stroke-width="4" />
    <circle cx="238" cy="146" r="12" fill="#1A2833" />
    <path d="M206 94L250 94" stroke="rgba(62,242,207,0.36)" stroke-width="6" stroke-linecap="round" />
  </g>

  <g opacity="0.52">
    <path d="M158 764C233.5 764 289.5 709 343 675C400.643 638.365 448.562 624 503 624C561.989 624 615.561 640.431 673 694C731.089 748.175 805.445 762 878 762" stroke="rgba(255,255,255,0.06)" stroke-width="2" />
    <path d="M158 800C233.5 800 289.5 745 343 711C400.643 674.365 448.562 660 503 660C561.989 660 615.561 676.431 673 730C731.089 784.175 805.445 798 878 798" stroke="rgba(62,242,207,0.12)" stroke-width="2" />
  </g>

  <rect x="1.5" y="1.5" width="957" height="1197" rx="70.5" stroke="rgba(255,255,255,0.08)" stroke-width="3" />
</svg>
